<?xml version="1.0" standalone="no"?>
<!DOCTYPE svg PUBLIC "-//W3C//DTD SVG 20010904//EN"
 "http://www.w3.org/TR/2001/REC-SVG-20010904/DTD/svg10.dtd">
<svg version="1.0" xmlns="http://www.w3.org/2000/svg"
 width="1876.000000pt" height="1876.000000pt" viewBox="0 0 1876.000000 1876.000000"
 preserveAspectRatio="xMidYMid meet">
<metadata>
Created by potrace 1.11, written by Peter Selinger 2001-2013
</metadata>
<g transform="translate(0.000000,1876.000000) scale(0.100000,-0.100000)"
fill="#000000" stroke="none">
<path d="M9569 17676 c-2 -2 -53 -7 -114 -11 -251 -15 -647 -61 -920 -107 -99
-16 -189 -31 -200 -33 -48 -7 -331 -66 -345 -72 -8 -3 -19 -7 -25 -7 -5 -1
-41 -11 -80 -22 -115 -36 -186 -55 -214 -60 -14 -3 -46 -12 -71 -20 -25 -9
-54 -17 -65 -18 -11 -1 -27 -5 -35 -9 -8 -3 -49 -16 -90 -28 -41 -12 -120 -37
-175 -56 -55 -19 -109 -37 -120 -41 -11 -3 -26 -12 -33 -19 -8 -7 -18 -10 -24
-7 -6 4 -14 1 -18 -5 -4 -7 -13 -13 -21 -14 -8 -2 -20 -6 -27 -11 -7 -4 -28
-10 -45 -13 -18 -2 -36 -9 -41 -14 -6 -5 -20 -9 -32 -9 -13 0 -26 -4 -29 -10
-3 -5 -13 -10 -22 -10 -9 0 -24 -7 -33 -15 -10 -9 -30 -18 -45 -21 -15 -3 -44
-12 -64 -21 -20 -9 -38 -17 -41 -18 -33 -12 -86 -39 -97 -50 -7 -8 -21 -11
-30 -8 -11 4 -14 3 -9 -5 7 -11 -7 -16 -41 -15 -7 1 -13 -3 -13 -7 0 -5 -25
-18 -56 -29 -31 -12 -62 -28 -70 -36 -8 -8 -21 -12 -29 -9 -8 4 -15 1 -15 -6
0 -6 -4 -8 -10 -5 -5 3 -10 2 -10 -4 0 -5 -26 -19 -57 -31 -32 -12 -65 -28
-74 -36 -8 -7 -30 -19 -48 -25 -17 -6 -30 -14 -27 -16 7 -8 -117 -68 -133 -65
-7 2 -10 -1 -7 -6 7 -12 -22 -24 -37 -15 -7 3 -9 3 -5 -2 5 -5 -11 -17 -34
-27 -23 -11 -45 -22 -48 -27 -3 -4 -33 -23 -67 -41 -34 -19 -60 -36 -58 -39 3
-2 -19 -15 -47 -28 -29 -13 -56 -30 -60 -36 -4 -7 -8 -8 -8 -3 0 6 -6 2 -12
-7 -7 -8 -49 -35 -93 -58 -44 -24 -84 -48 -90 -54 -5 -7 -28 -23 -50 -36 -21
-13 -47 -30 -56 -39 -49 -44 -72 -59 -81 -53 -7 4 -8 1 -3 -7 6 -10 4 -12 -9
-7 -11 5 -15 3 -10 -5 5 -8 2 -9 -10 -5 -9 4 -14 3 -11 -2 3 -5 -4 -12 -15
-16 -11 -3 -20 -11 -20 -17 0 -6 -3 -9 -6 -5 -4 3 -12 1 -20 -6 -30 -27 -44
-37 -76 -57 -18 -11 -28 -20 -23 -20 6 0 -7 -11 -27 -24 -21 -12 -35 -26 -30
-31 4 -4 -1 -5 -11 -2 -10 4 -16 3 -13 -1 3 -5 -9 -17 -27 -27 -18 -10 -39
-27 -48 -37 -9 -10 -21 -18 -27 -18 -6 0 -29 -18 -52 -40 -23 -22 -51 -45 -62
-51 -11 -6 -17 -13 -14 -17 3 -3 -12 -16 -34 -29 -22 -13 -40 -28 -40 -33 0
-5 -7 -6 -17 -3 -9 4 -14 2 -10 -3 3 -6 -12 -21 -34 -34 -21 -14 -39 -30 -39
-37 0 -7 -3 -13 -8 -13 -13 0 -77 -63 -74 -73 2 -5 -4 -7 -13 -4 -9 4 -15 1
-15 -9 0 -9 -9 -18 -20 -21 -11 -3 -20 -11 -20 -19 0 -8 -6 -11 -17 -7 -10 4
-14 2 -10 -4 4 -5 -14 -25 -38 -42 -25 -18 -43 -37 -40 -42 4 -5 2 -9 -3 -9
-5 0 -22 -14 -38 -30 -16 -17 -39 -35 -51 -40 -13 -6 -23 -18 -23 -30 0 -11
-5 -20 -12 -20 -6 0 -39 -28 -72 -62 -33 -35 -64 -62 -69 -60 -4 1 -12 -9 -17
-22 -5 -13 -17 -29 -27 -35 -10 -6 -14 -11 -9 -11 12 0 -54 -60 -66 -60 -4 0
-8 -6 -8 -13 0 -15 -41 -53 -54 -49 -5 2 -6 -4 -3 -12 4 -9 3 -15 -1 -14 -12
4 -58 -48 -54 -61 2 -6 0 -10 -5 -9 -4 2 -18 -7 -31 -20 -12 -12 -19 -22 -15
-22 4 0 -3 -9 -15 -20 -12 -11 -26 -20 -32 -20 -5 0 -9 -3 -7 -8 1 -4 -8 -18
-21 -32 -12 -13 -22 -28 -22 -32 0 -5 -5 -6 -12 -2 -8 5 -9 2 -5 -9 4 -11 1
-17 -7 -17 -7 0 -21 -18 -31 -40 -10 -22 -21 -37 -26 -34 -4 2 -15 -9 -24 -26
-9 -17 -20 -28 -25 -25 -6 4 -10 0 -10 -8 0 -7 -11 -23 -25 -35 -14 -12 -25
-27 -25 -33 0 -7 -8 -19 -18 -28 -10 -9 -27 -30 -37 -48 -10 -18 -22 -30 -27
-27 -4 3 -5 -3 -1 -12 4 -10 2 -15 -3 -11 -6 3 -18 -10 -28 -28 -11 -19 -22
-32 -26 -30 -4 3 -13 -8 -20 -24 -6 -16 -22 -38 -35 -47 -13 -10 -22 -21 -19
-26 3 -4 1 -8 -4 -8 -5 0 -17 -18 -27 -40 -10 -22 -22 -37 -26 -34 -5 3 -6 -3
-2 -12 5 -13 3 -15 -7 -9 -8 5 -11 4 -7 -3 6 -9 -8 -31 -53 -81 -23 -25 -51
-71 -44 -71 4 0 -5 -11 -20 -25 -15 -14 -23 -25 -19 -25 4 0 3 -4 -3 -8 -6 -4
-22 -27 -34 -52 -13 -25 -31 -52 -41 -61 -10 -9 -16 -19 -12 -23 3 -3 1 -6 -5
-6 -6 0 -9 -7 -5 -17 4 -10 2 -14 -4 -10 -6 4 -23 -22 -40 -58 -17 -36 -32
-62 -35 -59 -3 2 -11 -9 -18 -26 -7 -16 -16 -30 -20 -30 -4 0 -13 -15 -21 -32
-7 -18 -16 -35 -20 -38 -5 -3 -17 -26 -28 -50 -11 -25 -21 -40 -21 -35 -1 6
-8 -2 -16 -18 -8 -15 -13 -31 -10 -36 3 -5 -3 -19 -14 -31 -11 -13 -25 -40
-32 -61 -6 -21 -14 -36 -19 -34 -4 3 -13 -11 -19 -30 -6 -19 -16 -35 -21 -35
-6 0 -7 -4 -4 -10 3 -5 2 -10 -3 -10 -4 0 -19 -26 -32 -57 -13 -32 -30 -64
-37 -72 -8 -7 -12 -20 -9 -27 3 -7 -1 -20 -8 -27 -8 -7 -24 -38 -37 -68 -13
-30 -25 -56 -28 -59 -4 -3 -6 -11 -7 -17 -3 -40 -5 -44 -16 -37 -8 5 -9 2 -5
-9 3 -10 2 -17 -4 -17 -6 0 -7 -4 -4 -10 3 -5 2 -10 -3 -10 -7 0 -31 -46 -47
-90 -5 -14 -28 -67 -36 -83 -6 -10 -7 -22 -4 -27 4 -6 1 -10 -5 -10 -6 0 -9
-4 -6 -9 3 -5 -1 -14 -9 -21 -8 -7 -15 -23 -15 -36 0 -13 -4 -24 -10 -24 -5 0
-10 -11 -10 -25 0 -14 -4 -25 -9 -25 -5 0 -12 -20 -15 -45 -4 -24 -11 -47 -17
-50 -5 -4 -7 -10 -4 -15 3 -5 -2 -15 -11 -24 -8 -9 -13 -20 -10 -25 4 -5 -1
-16 -9 -24 -8 -9 -15 -19 -15 -23 0 -11 -59 -176 -70 -196 -6 -10 -10 -26 -10
-35 0 -22 -44 -160 -53 -170 -4 -3 -7 -16 -7 -28 0 -13 -6 -41 -14 -63 -8 -22
-17 -57 -20 -76 -3 -20 -13 -53 -21 -73 -8 -19 -15 -44 -15 -55 0 -10 -10 -47
-21 -81 -12 -34 -23 -71 -25 -82 -2 -11 -10 -45 -17 -75 -41 -157 -111 -550
-137 -765 -6 -49 -13 -97 -15 -105 -2 -8 -7 -50 -10 -93 -4 -43 -8 -86 -10
-95 -1 -9 -8 -82 -15 -162 -6 -80 -16 -188 -20 -240 -11 -120 -10 -781 0 -920
15 -189 32 -385 35 -402 2 -9 6 -52 10 -95 3 -43 8 -85 10 -93 2 -8 9 -55 15
-105 26 -215 96 -608 137 -765 7 -30 15 -64 17 -75 2 -11 13 -48 25 -82 11
-34 21 -71 21 -81 0 -11 7 -35 15 -55 8 -19 17 -50 20 -68 7 -43 29 -120 66
-234 16 -49 29 -98 29 -108 0 -9 4 -25 10 -35 11 -20 70 -185 70 -196 0 -4 7
-14 15 -23 8 -8 13 -19 9 -24 -3 -5 2 -16 10 -25 9 -9 14 -19 11 -24 -3 -5 -1
-11 4 -15 6 -3 13 -26 17 -50 3 -25 10 -45 15 -45 5 0 9 -11 9 -25 0 -14 5
-25 10 -25 6 0 10 -11 10 -24 0 -13 7 -29 15 -36 8 -7 12 -16 9 -21 -3 -5 -1
-9 5 -9 6 0 8 -7 5 -15 -4 -8 -1 -15 5 -15 6 0 11 -10 11 -23 0 -12 8 -34 17
-47 10 -14 17 -27 17 -30 -1 -14 30 -80 38 -80 5 0 6 -4 3 -10 -3 -5 -2 -10 4
-10 6 0 7 -7 4 -17 -4 -11 -3 -14 5 -9 11 7 13 3 16 -36 1 -7 3 -15 7 -18 3
-3 15 -29 28 -59 13 -30 29 -61 37 -68 7 -7 11 -20 8 -27 -3 -7 1 -20 8 -27 8
-8 23 -35 34 -61 10 -27 23 -48 27 -48 5 0 5 -4 2 -10 -3 -6 -1 -10 5 -10 6 0
8 -5 5 -10 -3 -6 -2 -10 4 -10 5 0 15 -16 21 -35 6 -19 15 -33 19 -30 5 2 13
-13 19 -34 7 -21 21 -48 32 -61 11 -12 17 -26 14 -31 -3 -5 2 -21 10 -36 8
-16 15 -23 16 -18 0 6 10 -10 21 -35 11 -24 23 -47 28 -50 4 -3 13 -20 20 -37
8 -18 17 -33 21 -33 4 0 13 -14 20 -30 7 -17 15 -28 18 -26 3 3 18 -23 35 -59
17 -36 34 -62 40 -58 6 4 8 0 4 -10 -4 -10 -1 -17 5 -17 6 0 8 -3 5 -6 -4 -4
2 -14 12 -23 10 -9 28 -36 41 -61 12 -25 28 -48 34 -52 6 -4 7 -8 3 -8 -4 0 4
-11 19 -25 15 -14 24 -25 20 -25 -7 0 21 -46 44 -71 45 -50 59 -72 53 -81 -4
-7 -1 -8 7 -3 10 6 12 4 7 -9 -4 -9 -3 -15 2 -12 4 3 16 -12 26 -34 10 -22 22
-40 27 -40 5 0 7 -4 4 -8 -3 -5 6 -16 19 -26 13 -9 29 -31 35 -47 7 -16 16
-27 20 -24 4 2 15 -11 26 -30 10 -18 22 -31 28 -28 5 4 7 -1 3 -11 -4 -9 -3
-15 1 -12 5 3 17 -9 27 -27 10 -18 27 -39 37 -48 10 -9 18 -21 18 -28 0 -6 11
-21 25 -33 14 -12 25 -28 25 -35 0 -8 4 -12 10 -8 5 3 16 -8 25 -25 9 -17 20
-28 24 -26 5 3 16 -12 26 -34 10 -22 24 -40 31 -40 8 0 11 -6 7 -17 -4 -11 -3
-14 5 -9 7 4 12 3 12 -2 0 -4 10 -19 23 -32 12 -14 21 -28 20 -32 -2 -5 2 -8
7 -8 6 0 20 -9 32 -20 12 -11 19 -20 15 -20 -4 0 3 -10 15 -22 13 -13 27 -22
31 -20 5 1 7 -3 5 -9 -4 -13 42 -65 54 -61 4 1 4 -6 1 -15 -4 -10 -2 -14 4
-10 6 4 19 -5 29 -19 23 -32 33 -42 72 -73 17 -14 29 -28 26 -32 -2 -4 3 -10
11 -13 9 -3 20 -17 25 -31 5 -14 13 -24 18 -23 5 2 35 -25 68 -59 33 -35 65
-63 72 -63 6 0 12 -9 12 -20 0 -12 10 -24 22 -30 13 -5 36 -23 52 -40 16 -16
33 -30 38 -30 5 0 7 -4 3 -9 -3 -5 15 -24 40 -42 24 -17 42 -37 38 -42 -4 -6
0 -8 10 -4 11 4 17 1 17 -7 0 -8 9 -16 20 -19 11 -3 20 -12 20 -21 0 -10 6
-13 15 -9 9 3 15 1 13 -4 -3 -10 61 -73 74 -73 5 0 8 -7 8 -16 0 -8 4 -12 10
-9 6 3 10 2 10 -4 0 -5 13 -18 29 -27 17 -10 27 -22 24 -28 -4 -5 1 -7 10 -3
10 3 17 2 17 -3 0 -5 18 -20 40 -33 22 -13 37 -26 34 -30 -4 -3 5 -12 20 -18
14 -7 26 -18 26 -26 0 -7 4 -13 9 -13 6 0 22 -11 37 -25 15 -14 31 -25 37 -25
5 0 17 -8 26 -18 9 -10 30 -27 48 -37 18 -10 30 -22 27 -27 -3 -4 3 -5 13 -1
10 3 15 2 11 -2 -5 -5 9 -19 30 -31 20 -13 33 -24 27 -24 -5 0 5 -9 24 -21 19
-11 40 -26 47 -32 33 -30 42 -35 48 -30 3 4 6 1 6 -5 0 -6 9 -14 20 -17 11 -4
18 -11 15 -16 -3 -5 2 -6 11 -2 12 4 15 3 10 -5 -5 -8 -1 -10 10 -5 13 5 15 3
9 -7 -5 -8 -4 -11 3 -7 9 6 32 -9 81 -53 9 -9 35 -26 56 -39 22 -13 45 -29 50
-36 6 -6 46 -30 90 -54 44 -23 86 -50 93 -58 6 -9 12 -13 12 -7 0 5 4 4 8 -3
4 -6 31 -23 60 -36 28 -13 50 -26 47 -28 -2 -3 24 -20 58 -39 34 -18 64 -37
67 -41 3 -5 25 -16 48 -27 23 -10 39 -22 34 -27 -4 -5 -2 -5 5 -2 15 9 44 -3
37 -15 -3 -5 0 -8 7 -6 16 3 140 -57 133 -65 -3 -2 10 -10 27 -16 18 -6 40
-18 48 -25 9 -8 42 -24 74 -36 31 -12 57 -26 57 -31 0 -6 5 -7 10 -4 6 3 10 1
10 -5 0 -7 6 -10 14 -7 8 3 24 -3 37 -14 12 -10 27 -19 34 -19 13 0 77 -29 85
-39 3 -3 11 -6 18 -7 39 -3 43 -5 36 -16 -5 -8 -2 -9 9 -5 9 3 22 0 29 -7 19
-19 145 -76 168 -76 11 0 20 -5 20 -11 0 -6 6 -9 14 -6 8 3 26 -3 41 -15 14
-11 29 -18 32 -14 4 3 13 0 22 -7 18 -14 71 -33 113 -41 15 -2 33 -8 40 -13 7
-4 19 -8 27 -10 8 -1 17 -7 21 -14 4 -6 12 -9 18 -5 6 3 16 0 24 -7 7 -7 22
-16 33 -19 11 -4 65 -22 120 -41 55 -19 134 -44 175 -56 41 -12 82 -25 90 -28
8 -4 24 -8 35 -9 11 -1 40 -9 65 -18 25 -8 56 -17 70 -19 51 -10 80 -19 76
-26 -2 -3 13 -7 35 -8 21 -1 66 -12 101 -24 35 -12 70 -23 78 -24 8 -1 22 -5
30 -8 19 -8 235 -53 365 -76 344 -62 704 -106 1150 -141 154 -12 787 -11 930
1 144 13 432 39 485 45 133 14 517 72 665 99 184 35 347 71 425 95 195 58 236
70 249 70 7 0 34 6 60 14 25 8 93 29 151 46 228 68 341 108 413 146 15 9 27
12 27 8 0 -3 6 -2 13 4 6 5 28 13 47 17 19 4 41 11 50 15 8 4 29 13 45 20 17
7 44 18 60 25 17 7 46 18 65 25 77 26 171 70 188 87 7 6 20 9 29 6 11 -4 14
-3 9 5 -7 11 7 16 41 15 7 -1 11 2 9 6 -3 4 23 18 57 31 34 13 65 28 68 33 3
5 17 10 31 11 14 2 32 8 39 15 8 7 59 34 114 61 55 27 96 49 91 50 -13 0 117
64 132 65 7 0 16 5 20 11 4 6 31 22 60 34 28 12 52 25 52 29 0 3 29 21 65 40
35 19 63 37 60 39 -3 3 24 18 60 35 35 16 63 33 60 36 -2 4 33 26 78 51 45 24
94 53 109 64 59 47 72 56 80 56 7 0 17 8 69 55 9 8 23 15 33 15 9 0 15 4 12 9
-7 11 22 23 36 14 6 -3 8 -1 5 4 -4 6 7 16 23 23 17 7 30 17 30 22 0 5 5 6 10
3 6 -3 10 -1 10 5 0 6 21 24 47 40 26 17 43 30 37 30 -5 0 8 11 28 24 21 12
35 26 30 31 -4 4 1 5 11 2 10 -4 16 -3 13 1 -3 5 8 16 25 26 16 10 40 28 54
42 13 13 29 24 35 24 5 0 25 15 43 34 17 18 41 38 52 44 11 6 21 20 22 31 l2
21 -532 0 c-1113 1 -1381 -1 -1387 -9 -3 -4 -26 -16 -52 -26 -27 -10 -45 -22
-41 -28 3 -5 1 -7 -5 -4 -12 8 -44 -2 -38 -12 2 -3 -35 -24 -82 -45 -258 -115
-314 -138 -359 -151 -13 -4 -23 -11 -23 -16 0 -5 -7 -9 -15 -9 -9 0 -37 -11
-64 -25 -27 -13 -51 -22 -54 -19 -3 3 -28 -6 -56 -20 -46 -24 -201 -79 -226
-80 -6 -1 -28 -8 -50 -18 -22 -9 -67 -24 -100 -33 -33 -9 -73 -23 -88 -32 -16
-8 -31 -12 -34 -9 -3 3 -17 -1 -32 -8 -30 -16 -128 -42 -396 -106 -44 -10
-181 -37 -305 -59 -124 -23 -241 -45 -260 -50 -59 -16 -354 -50 -570 -66 -268
-19 -812 -19 -1080 0 -194 14 -518 50 -549 61 -8 2 -125 25 -260 50 -135 25
-284 54 -331 65 -145 33 -323 80 -365 95 -22 8 -49 16 -60 18 -11 1 -29 8 -40
14 -11 6 -47 18 -80 27 -33 10 -78 24 -100 32 -22 8 -47 16 -55 18 -31 6 -176
58 -215 76 -23 11 -50 21 -61 23 -27 6 -57 18 -157 65 -48 22 -91 41 -96 41
-4 0 -46 17 -92 38 -46 22 -123 56 -171 77 -48 21 -85 42 -83 46 7 10 -25 20
-37 12 -6 -3 -8 -1 -4 5 3 6 -9 15 -31 23 -47 15 -243 121 -238 128 2 3 -9 7
-23 8 -15 0 -28 6 -30 12 -2 6 -10 11 -17 11 -8 0 -18 6 -22 14 -4 7 -27 23
-50 35 -24 12 -43 26 -43 31 0 6 -6 10 -14 10 -8 0 -21 6 -28 14 -8 7 -24 17
-36 20 -12 4 -22 12 -22 17 0 5 -6 9 -12 9 -21 0 -210 120 -248 156 -19 19
-40 34 -47 34 -7 0 -13 4 -13 10 0 5 -11 12 -25 16 -14 3 -25 10 -25 15 0 5
-7 9 -15 9 -8 0 -15 5 -15 10 0 6 -7 10 -15 10 -9 0 -18 7 -21 15 -4 8 -12 15
-20 15 -8 0 -14 5 -14 10 0 6 -7 10 -15 10 -8 0 -15 5 -15 10 0 6 -7 10 -15
10 -8 0 -15 5 -15 10 0 6 -7 10 -15 10 -8 0 -14 3 -13 7 3 11 -47 63 -61 63
-6 0 -11 5 -11 10 0 6 -7 10 -15 10 -9 0 -18 7 -21 15 -4 8 -10 15 -16 15 -13
0 -168 121 -168 132 0 5 -8 12 -17 15 -19 7 -31 17 -145 116 -43 37 -78 71
-78 75 0 3 19 -12 43 -33 l42 -40 -44 47 c-25 26 -46 46 -49 44 -5 -6 -61 45
-211 194 -137 136 -196 200 -185 200 4 0 1 7 -6 15 -7 8 -16 13 -20 10 -5 -3
-12 0 -16 6 -5 8 -2 10 7 5 8 -4 -16 21 -53 57 -38 35 -68 67 -68 71 0 4 -14
19 -30 33 -17 14 -29 27 -27 29 2 2 -13 23 -35 46 -21 23 -38 47 -38 55 0 7
-9 18 -20 25 -11 7 -20 18 -20 24 0 7 -7 14 -15 18 -8 3 -15 11 -15 18 0 7 -9
19 -20 26 -12 7 -18 17 -15 21 2 5 -2 12 -11 15 -9 4 -14 9 -11 12 3 3 -9 20
-27 37 -17 18 -47 55 -66 82 -18 28 -40 54 -47 58 -7 4 -13 15 -13 22 0 8 -4
15 -10 15 -5 0 -10 7 -10 15 0 8 -4 15 -9 15 -5 0 -11 10 -15 23 -5 20 -33 59
-79 107 -20 21 -97 148 -97 160 0 6 -4 10 -9 10 -5 0 -12 11 -15 24 -3 14 -14
32 -23 42 -10 9 -18 24 -19 32 -2 9 -10 19 -19 24 -8 5 -13 13 -10 19 4 5 1 9
-5 9 -6 0 -8 5 -5 10 3 6 1 10 -5 10 -5 0 -18 16 -27 35 -9 19 -20 35 -25 35
-4 0 -4 7 -1 17 4 9 2 14 -3 10 -5 -3 -17 8 -27 24 -9 17 -12 27 -7 24 6 -3 7
1 4 9 -3 9 -11 13 -17 9 -6 -4 -8 0 -4 11 4 9 3 15 -2 12 -5 -3 -28 33 -51 82
-24 48 -46 89 -50 92 -4 3 -10 15 -14 28 -4 12 -12 22 -17 22 -6 0 -7 4 -4 10
3 5 -3 26 -14 47 -11 21 -20 34 -21 29 0 -14 -74 140 -110 230 -17 42 -49 117
-71 167 -71 160 -84 191 -81 199 1 5 -8 27 -19 51 -21 40 -77 196 -82 227 -2
8 -11 32 -20 54 -9 21 -17 44 -17 50 0 17 -29 107 -42 131 -6 11 -13 29 -14
40 -2 11 -17 65 -34 120 -44 143 -99 383 -140 610 -12 66 -30 163 -40 215 -22
108 -55 362 -65 495 -4 50 -9 101 -12 115 -3 14 -7 214 -10 445 -4 333 -2 465
11 638 19 250 48 490 76 627 10 52 28 149 40 215 41 227 96 467 140 610 17 55
32 110 34 122 2 13 8 28 13 35 5 7 20 49 33 93 12 44 27 91 33 105 6 14 12 32
13 40 6 32 62 187 83 227 11 24 20 46 19 51 -3 8 10 39 81 199 22 50 54 125
71 167 36 90 110 244 110 230 1 -5 10 8 21 29 11 21 17 42 14 47 -3 6 -2 10 4
10 5 0 13 10 17 23 4 12 10 24 14 27 4 3 26 44 50 92 23 49 46 85 51 82 5 -3
6 3 2 12 -4 11 -2 15 4 11 6 -4 14 0 17 9 3 8 2 12 -4 9 -5 -3 -2 7 7 24 10
16 22 27 27 24 5 -4 7 1 3 10 -3 10 -3 17 1 17 5 0 16 16 25 35 9 19 22 35 27
35 6 0 8 5 5 10 -3 6 -1 10 5 10 6 0 9 4 5 9 -3 6 2 14 10 19 9 5 17 15 19 24
1 8 9 23 19 32 9 10 20 28 23 42 3 13 10 24 15 24 5 0 9 4 9 10 0 12 77 139
97 160 46 48 74 87 79 107 4 13 10 23 15 23 5 0 9 7 9 15 0 8 5 15 10 15 6 0
10 7 10 15 0 7 6 18 13 22 7 4 29 31 47 58 19 28 49 64 66 82 18 17 30 34 27
37 -3 3 2 8 11 12 9 3 13 10 11 15 -3 4 3 14 15 21 11 7 20 19 20 26 0 7 7 15
15 18 8 4 15 11 15 18 0 6 9 17 20 24 11 7 20 18 20 25 0 8 17 32 38 55 22 23
37 44 35 46 -2 2 9 14 25 27 15 14 31 32 35 42 3 9 18 22 32 29 14 6 25 15 25
19 0 5 17 25 38 45 20 20 31 32 23 28 -9 -5 -12 -3 -7 5 4 6 11 9 16 6 4 -3
13 2 20 10 7 8 10 15 6 15 -19 0 284 312 332 341 17 12 29 26 26 31 -4 7 -2 8
5 4 6 -4 14 0 17 8 3 9 9 14 13 11 4 -2 28 17 52 43 l44 47 -42 -40 c-24 -21
-43 -36 -43 -33 0 4 35 38 78 75 114 99 126 109 145 116 9 3 17 10 17 15 0 11
155 132 168 132 6 0 12 7 16 15 3 8 12 15 19 15 17 0 93 70 90 82 -2 4 4 8 12
8 8 0 15 5 15 10 0 6 7 10 15 10 8 0 15 5 15 10 0 6 7 10 15 10 8 0 15 5 15
10 0 6 6 10 14 10 8 0 16 7 20 15 3 8 12 15 21 15 8 0 15 5 15 10 0 6 7 10 15
10 8 0 15 5 15 10 0 6 6 10 14 10 13 0 102 63 121 86 15 18 208 134 223 134 6
0 12 4 12 10 0 5 11 12 25 16 14 3 25 10 25 14 0 4 8 10 18 14 16 6 71 42 100
66 6 6 12 7 12 3 0 -4 5 0 11 10 5 9 16 17 24 17 7 0 15 5 17 11 2 6 15 12 30
12 14 1 24 5 22 9 -5 8 36 23 51 19 6 -1 7 1 2 5 -8 8 130 85 187 104 21 7 33
16 30 22 -4 6 -2 8 4 5 12 -8 44 2 37 12 -2 4 35 25 83 46 48 21 125 55 171
77 46 21 88 38 92 38 5 0 48 19 96 41 100 47 130 59 157 65 11 2 38 12 61 23
39 18 184 70 215 76 8 2 33 10 55 18 22 8 67 22 100 32 33 9 69 21 80 27 11 6
29 13 40 14 11 2 38 10 60 18 42 15 220 62 365 95 71 17 458 91 635 122 89 16
395 48 559 58 232 16 786 13 1026 -4 199 -14 514 -50 555 -62 11 -3 29 -7 40
-9 151 -22 621 -119 745 -154 19 -5 64 -17 100 -26 36 -10 77 -23 91 -30 15
-7 29 -11 32 -8 3 3 18 -1 34 -9 15 -9 55 -23 88 -32 33 -9 78 -24 100 -33 22
-10 44 -17 50 -18 25 -1 180 -56 226 -80 28 -14 53 -23 56 -20 3 3 27 -6 54
-19 27 -14 55 -25 64 -25 8 0 15 -4 15 -9 0 -5 10 -12 23 -16 45 -13 101 -36
359 -151 47 -21 84 -42 82 -45 -6 -10 26 -20 38 -12 6 3 8 1 5 -4 -4 -6 14
-18 41 -28 26 -10 49 -21 52 -24 3 -4 28 -17 57 -30 29 -13 49 -29 46 -34 -3
-6 -1 -7 5 -3 14 8 74 -28 64 -39 -4 -5 -1 -5 5 -1 7 4 32 -4 55 -18 24 -14
39 -26 33 -26 -5 -1 14 -12 43 -25 28 -13 52 -29 52 -34 0 -6 8 -11 18 -11 10
0 25 -9 35 -20 9 -11 24 -20 32 -20 8 0 15 -4 15 -10 0 -5 6 -10 13 -10 13 0
203 -114 227 -136 45 -43 89 -75 122 -91 21 -10 38 -21 38 -25 0 -5 4 -8 9 -8
6 0 22 -11 37 -25 15 -14 33 -25 40 -25 8 0 14 -4 14 -10 0 -5 7 -10 15 -10 8
0 15 -4 15 -10 0 -5 7 -10 15 -10 8 0 14 -3 13 -7 -1 -5 10 -21 25 -37 15 -16
27 -25 27 -20 0 5 5 1 11 -9 6 -9 14 -15 19 -12 5 3 14 -4 20 -15 6 -11 17
-20 25 -20 8 0 15 -5 15 -10 0 -6 8 -14 18 -17 23 -9 95 -66 156 -125 28 -27
55 -48 62 -48 6 0 57 -45 114 -99 56 -54 129 -122 161 -150 l58 -51 715 0
c493 0 716 3 716 10 0 6 -11 21 -23 33 -13 12 -29 32 -36 45 -7 12 -16 20 -20
18 -4 -3 -17 12 -27 34 -10 22 -25 40 -32 40 -7 0 -11 4 -8 8 3 5 -4 15 -15
22 -10 8 -19 20 -19 26 0 7 -7 15 -16 18 -8 3 -12 10 -9 16 3 5 1 10 -5 10 -6
0 -20 9 -32 20 -12 11 -19 20 -15 20 4 0 -3 10 -15 23 -13 12 -27 21 -32 19
-5 -2 -6 4 -3 12 4 9 -1 17 -14 21 -10 4 -19 13 -19 21 0 8 -8 14 -17 14 -9 0
-14 3 -10 6 3 4 -7 18 -23 32 -17 15 -30 32 -30 39 0 7 -4 13 -8 13 -5 0 -24
14 -42 30 -18 17 -31 30 -27 30 4 0 -37 43 -90 95 -53 52 -100 95 -105 95 -4
0 -8 5 -8 10 0 11 -100 110 -112 110 -3 0 -10 9 -13 20 -3 11 -13 20 -21 20
-8 0 -17 7 -20 15 -4 8 -13 15 -21 15 -10 0 -13 6 -9 16 4 12 2 15 -9 10 -8
-3 -15 0 -15 7 0 7 -10 17 -22 22 -13 6 -22 16 -21 23 2 6 -4 9 -13 5 -8 -3
-14 -2 -12 3 4 11 -52 68 -75 77 -10 4 -15 11 -12 17 3 5 -1 10 -9 10 -9 0
-16 5 -16 10 0 6 -7 10 -15 10 -8 0 -15 5 -15 10 0 6 -7 10 -15 10 -8 0 -19 8
-24 18 -5 10 -21 24 -35 31 -14 8 -22 19 -19 24 4 6 0 8 -11 4 -10 -4 -15 -3
-11 3 3 5 -5 14 -17 21 -13 6 -38 27 -55 45 -18 19 -38 34 -43 34 -6 0 -22 11
-35 24 -14 14 -38 32 -54 42 -17 10 -28 21 -25 26 3 4 -3 5 -13 1 -10 -3 -15
-2 -11 2 5 5 -9 19 -30 31 -20 13 -33 24 -28 24 6 0 -11 13 -37 30 -26 16 -47
34 -47 40 0 6 -4 8 -10 5 -5 -3 -10 -2 -10 3 0 5 -13 15 -30 22 -16 7 -27 16
-24 21 3 5 -3 6 -12 2 -12 -4 -15 -3 -10 5 5 8 1 10 -10 5 -13 -5 -15 -3 -9 7
5 8 4 11 -3 7 -9 -7 -33 10 -83 56 -10 9 -23 17 -27 17 -8 0 -43 25 -72 51 -9
9 -58 38 -108 64 -50 27 -89 52 -87 56 3 3 -25 20 -60 36 -36 17 -63 32 -60
35 3 2 -25 20 -60 39 -36 19 -65 37 -65 40 0 4 -24 17 -52 29 -29 12 -57 29
-63 37 -6 8 -15 13 -20 11 -6 -1 -39 12 -74 30 -35 17 -60 32 -55 32 5 1 -36
23 -91 50 -55 27 -106 54 -114 61 -7 7 -25 13 -39 15 -14 1 -28 6 -31 11 -3 5
-34 20 -68 33 -34 13 -60 27 -57 31 2 4 -2 7 -9 6 -34 -1 -48 4 -41 15 5 8 2
9 -9 5 -9 -3 -22 0 -29 6 -17 17 -111 61 -188 87 -19 7 -48 18 -65 25 -16 7
-43 18 -60 25 -16 7 -37 16 -45 20 -9 4 -31 11 -50 15 -19 4 -39 10 -45 13 -5
4 -17 7 -25 9 -8 1 -16 7 -18 12 -2 6 -11 11 -21 11 -9 0 -35 8 -57 19 -44 21
-178 65 -334 111 -58 17 -127 38 -155 46 -27 8 -60 17 -72 19 -24 4 -99 25
-208 59 -38 11 -74 21 -80 22 -5 0 -28 6 -50 12 -33 9 -177 39 -320 67 -77 14
-402 65 -505 79 -125 17 -141 19 -370 40 -85 9 -180 18 -210 21 -63 7 -924 17
-931 11z m-5009 -3460 c0 -2 -8 -10 -17 -17 -16 -13 -17 -12 -4 4 13 16 21 21
21 13z m-9 -9783 c13 -16 12 -17 -3 -4 -17 13 -22 21 -14 21 2 0 10 -8 17 -17z"/>
<path d="M6331 15442 c-14 -2 -54 -23 -90 -46 -37 -24 -115 -73 -176 -111 -60
-38 -155 -102 -210 -142 -55 -41 -131 -96 -170 -122 -57 -40 -224 -172 -271
-216 -6 -5 -22 -17 -34 -25 -12 -8 -28 -20 -35 -27 -6 -6 -47 -41 -91 -78
-117 -98 -245 -218 -324 -303 -25 -27 -49 -51 -55 -53 -14 -6 -213 -225 -307
-339 l-79 -95 648 -6 c356 -4 740 -9 853 -12 217 -7 550 -13 1205 -22 220 -3
508 -8 640 -10 132 -3 313 -5 403 -5 126 -1 162 -4 162 -14 0 -8 -11 -58 -25
-112 -14 -55 -27 -114 -30 -132 -2 -18 -7 -37 -10 -41 -3 -5 -7 -22 -10 -38
-2 -15 -9 -46 -15 -68 -6 -22 -13 -55 -15 -73 -1 -18 -8 -38 -14 -46 -6 -7 -9
-15 -7 -17 3 -2 -2 -31 -11 -64 -8 -33 -18 -78 -23 -100 -7 -33 -36 -163 -54
-240 -14 -56 -27 -122 -30 -140 -1 -12 -5 -25 -8 -31 -4 -5 -14 -45 -22 -88
-9 -43 -21 -86 -26 -96 -5 -10 -7 -20 -4 -23 3 -2 -3 -31 -12 -63 -10 -33 -17
-68 -16 -79 1 -10 -3 -24 -8 -30 -5 -6 -12 -29 -15 -51 -3 -21 -10 -57 -16
-79 -6 -22 -12 -49 -13 -60 -2 -11 -6 -30 -10 -42 -4 -12 -9 -32 -12 -45 -2
-13 -9 -43 -15 -68 -6 -25 -12 -56 -14 -70 -2 -14 -8 -37 -14 -52 -6 -16 -8
-28 -6 -28 3 0 -1 -15 -9 -34 -8 -19 -12 -37 -9 -40 3 -2 -1 -22 -8 -43 -7
-21 -12 -46 -10 -55 1 -10 -3 -18 -10 -18 -7 0 -10 -2 -7 -6 3 -3 2 -22 -3
-42 -5 -20 -12 -53 -15 -72 -3 -19 -8 -38 -11 -43 -2 -4 -6 -17 -8 -30 -7 -38
-25 -120 -36 -162 -6 -22 -16 -69 -24 -105 -23 -109 -34 -154 -44 -187 -5 -18
-7 -33 -4 -33 3 0 0 -7 -7 -15 -6 -8 -9 -19 -5 -24 3 -6 1 -20 -5 -32 -7 -11
-13 -33 -14 -47 -2 -15 -6 -34 -9 -42 -4 -11 -37 -150 -42 -180 -1 -3 -5 -25
-9 -50 -4 -25 -12 -58 -17 -75 -19 -66 -41 -161 -40 -179 0 -11 -4 -28 -10
-38 -5 -10 -12 -33 -14 -51 -3 -17 -9 -46 -14 -64 -5 -17 -7 -34 -3 -37 3 -3
-1 -6 -8 -6 -7 0 -11 -2 -8 -5 3 -4 1 -25 -4 -48 -6 -23 -12 -51 -14 -62 -2
-11 -9 -40 -14 -65 -16 -65 -27 -116 -44 -195 -8 -38 -24 -108 -36 -155 -12
-47 -22 -97 -24 -111 -1 -14 -6 -31 -11 -39 -4 -7 -14 -45 -22 -84 -15 -70
-19 -91 -48 -216 -8 -36 -22 -101 -31 -145 -9 -44 -21 -85 -26 -92 -5 -7 -7
-16 -4 -22 3 -5 1 -22 -5 -38 -6 -15 -12 -37 -14 -48 -1 -11 -5 -27 -8 -35 -6
-16 -17 -69 -23 -113 -2 -15 -8 -35 -13 -45 -5 -9 -12 -42 -16 -72 -4 -30 -11
-63 -16 -72 -5 -10 -11 -30 -13 -45 -2 -15 -9 -50 -16 -78 -7 -27 -14 -63 -16
-79 -2 -16 -8 -34 -14 -41 -5 -6 -8 -14 -5 -17 3 -3 -2 -32 -11 -64 -9 -32
-19 -77 -23 -99 -4 -23 -11 -46 -15 -53 -6 -9 195 -12 930 -10 l938 3 21 90
c12 50 32 135 45 190 13 55 25 105 27 110 1 6 5 24 8 40 6 32 92 404 124 540
74 310 162 692 166 720 2 11 8 34 15 50 6 17 11 32 10 35 -1 6 17 88 35 160 8
30 16 67 19 82 2 14 19 88 36 165 18 76 33 146 35 156 2 9 6 20 8 25 3 4 8 23
11 43 3 19 12 62 21 95 8 32 18 70 20 84 3 14 7 34 10 45 17 71 96 415 100
440 4 16 20 83 37 150 16 66 32 131 34 145 3 14 12 52 20 85 9 33 17 69 18 80
2 21 37 170 88 380 16 66 31 131 33 145 3 14 9 41 15 60 5 19 32 136 60 260
28 124 60 264 71 312 12 48 21 90 21 93 0 2 6 28 14 57 8 29 25 105 39 168 14
63 32 142 40 175 31 127 136 577 169 725 19 85 64 281 100 435 36 154 75 318
85 365 11 47 45 193 76 325 31 132 59 251 61 265 3 14 9 40 14 57 4 18 5 35 2
37 -4 2 -65 5 -137 6 -143 1 -599 8 -1050 15 -159 3 -434 7 -610 9 -176 3
-495 8 -710 11 -214 4 -502 8 -640 10 -906 13 -1119 16 -1124 18 -3 2 -17 1
-30 -1z"/>
<path d="M14860 14708 c41 -45 50 -53 50 -45 0 2 -21 23 -47 47 l-48 45 45
-47z"/>
<path d="M10328 11470 c-3 -19 -1 -29 6 -27 13 4 17 45 6 52 -4 3 -10 -9 -12
-25z"/>
<path d="M10333 9522 l-622 -2 -10 -38 c-6 -20 -11 -45 -11 -55 0 -10 -6 -46
-14 -80 -8 -34 -24 -107 -36 -162 -43 -205 -63 -292 -80 -355 -10 -36 -28
-112 -40 -170 -12 -58 -28 -134 -35 -170 -36 -171 -69 -312 -90 -385 -13 -44
-30 -116 -39 -160 -27 -133 -105 -485 -126 -565 -11 -41 -38 -158 -59 -260
-72 -337 -111 -515 -122 -545 -5 -16 -37 -158 -70 -315 -55 -262 -92 -422
-107 -460 -3 -8 -7 -24 -8 -35 -3 -19 -65 -319 -119 -574 -15 -69 -31 -136
-36 -150 -6 -14 -30 -120 -54 -235 -54 -262 -102 -474 -109 -485 -3 -5 -31
-131 -61 -281 -31 -149 -65 -306 -76 -347 -10 -42 -19 -85 -19 -95 0 -11 -3
-17 -7 -15 -5 3 -9 -7 -10 -21 -3 -45 -42 -214 -63 -269 -11 -29 -18 -53 -16
-53 3 0 -4 -24 -14 -53 -15 -44 -28 -112 -32 -164 -1 -7 -5 -13 -9 -13 -4 0
-7 -10 -7 -22 0 -32 -18 -105 -37 -158 -9 -25 -18 -54 -19 -65 -1 -11 -8 -36
-14 -56 -7 -20 -12 -41 -11 -45 1 -5 0 -11 -1 -14 -1 -3 -4 -18 -6 -35 -3 -16
-9 -32 -14 -35 -4 -3 -8 -16 -9 -30 0 -14 -2 -45 -3 -70 l-3 -45 150 -38 c302
-77 721 -149 1060 -181 154 -15 487 -36 570 -36 l40 0 49 258 c27 141 54 264
61 272 13 17 51 152 60 215 4 22 11 58 17 80 11 42 35 156 45 215 3 19 10 40
15 47 5 7 7 16 4 21 -3 5 2 33 10 63 9 30 18 72 20 94 2 21 9 44 14 49 6 6 10
22 10 37 0 15 5 31 10 34 6 3 10 21 10 40 0 19 5 37 11 40 6 4 8 13 5 20 -2 7
2 31 10 54 8 24 12 46 9 51 -3 5 -1 12 5 15 6 4 8 15 5 24 -3 10 2 35 10 56 9
20 14 43 11 51 -3 7 -1 16 4 19 6 4 10 21 10 40 0 19 4 36 9 39 4 3 11 27 15
53 13 83 13 88 19 103 3 8 8 29 12 45 3 17 10 48 16 70 6 22 13 54 16 70 3 17
10 35 15 42 5 6 8 20 7 30 -1 10 1 25 4 33 4 8 8 29 10 45 2 17 6 37 10 45 3
8 10 42 16 75 5 33 17 89 26 125 29 118 54 224 60 265 4 22 11 45 16 51 5 6
16 49 25 95 37 200 43 229 55 270 7 24 12 50 10 56 -1 7 6 36 15 65 9 29 20
73 25 98 22 109 38 172 50 186 5 6 7 18 4 26 -3 8 1 30 9 50 9 20 17 59 20 87
2 27 9 58 14 67 5 9 7 25 5 34 -3 10 0 21 6 24 6 4 11 19 11 34 0 15 7 52 16
82 9 30 17 67 18 83 2 15 6 30 9 34 4 3 7 21 7 39 0 18 5 36 10 39 6 3 10 19
10 34 0 15 9 54 19 87 11 32 24 86 30 119 10 59 14 82 46 220 9 39 22 102 29
140 7 39 18 83 25 98 6 16 11 39 11 52 0 12 11 60 24 106 21 78 34 130 73 314
8 39 18 88 23 110 5 22 14 65 21 95 6 30 14 62 17 70 3 8 4 21 3 29 -1 7 3 26
9 41 9 22 20 29 48 33 20 3 1175 6 2566 6 1391 1 2531 3 2534 6 2 2 -9 21 -25
42 -16 21 -32 45 -35 54 -8 22 -334 467 -364 498 -14 14 -33 39 -41 56 -9 16
-36 57 -61 90 -89 117 -142 195 -142 208 0 8 -68 108 -151 223 -83 115 -154
216 -157 224 -3 8 -24 41 -46 73 l-40 57 -745 0 c-411 0 -1394 1 -2186 3 -792
1 -1720 1 -2062 -1z"/>
<path d="M14836 7353 c-1 -1 -31 -5 -66 -8 -69 -6 -155 -20 -155 -25 0 -1 -13
-3 -30 -5 -35 -4 -143 -32 -159 -42 -6 -4 -17 -8 -25 -9 -22 -4 -122 -46 -176
-75 -121 -64 -147 -79 -139 -80 5 0 -3 -6 -17 -12 -62 -29 -216 -175 -292
-277 -26 -36 -55 -73 -62 -82 -8 -10 -12 -18 -9 -18 3 0 -3 -12 -14 -27 -31
-46 -97 -203 -86 -203 4 0 2 -6 -3 -12 -10 -12 -20 -48 -29 -95 -2 -13 -7 -35
-11 -50 -7 -33 -8 -257 -1 -293 12 -52 41 -130 49 -130 5 0 9 -7 9 -14 0 -49
144 -202 251 -266 63 -39 84 -60 59 -60 -18 0 -25 -2 -57 -15 -18 -8 -33 -11
-33 -7 0 4 -4 3 -8 -3 -4 -5 -42 -28 -84 -49 -43 -22 -78 -43 -78 -48 0 -4 -9
-8 -20 -8 -11 0 -20 -4 -20 -9 0 -4 -19 -21 -41 -36 -45 -29 -158 -140 -199
-193 -14 -18 -33 -42 -42 -54 -10 -11 -23 -33 -30 -49 -7 -16 -16 -29 -19 -29
-5 0 -24 -39 -84 -175 -8 -17 -16 -42 -19 -55 -3 -14 -12 -48 -19 -77 -8 -28
-12 -54 -9 -57 3 -3 1 -6 -4 -6 -16 0 -25 -234 -12 -315 17 -105 60 -225 96
-267 8 -10 12 -18 8 -18 -11 0 70 -97 124 -148 48 -46 163 -127 175 -123 4 2
11 -1 14 -6 5 -7 52 -32 71 -38 3 -1 19 -8 35 -15 17 -7 36 -12 43 -11 6 1 12
-4 12 -10 0 -7 3 -10 6 -6 3 3 23 -1 45 -8 22 -8 42 -14 44 -14 3 0 18 -2 33
-5 92 -19 163 -27 248 -30 39 -2 75 -6 81 -9 6 -4 13 -4 17 0 3 3 41 7 83 9
85 2 160 10 238 26 28 5 63 12 79 15 16 2 40 9 53 14 14 5 29 7 34 3 5 -3 9
-1 9 4 0 5 6 9 13 9 18 1 228 83 237 93 3 3 22 13 44 23 48 22 191 116 231
152 58 52 154 145 150 145 -4 0 22 31 66 80 9 10 18 21 20 26 2 5 20 34 39 64
19 30 35 57 36 60 0 3 14 34 31 70 17 36 35 79 39 95 4 17 9 35 13 40 3 6 6
15 7 20 1 6 5 25 9 44 3 19 7 37 9 40 18 29 26 279 11 356 -4 22 -8 45 -9 50
-1 6 -5 16 -9 23 -5 6 -5 12 -1 12 3 0 1 7 -6 15 -7 8 -9 15 -6 15 9 0 -63
138 -89 170 -67 83 -163 160 -243 195 -23 11 -42 22 -42 27 0 4 -7 5 -15 2 -8
-4 -15 -1 -15 4 0 10 72 48 135 72 14 5 25 15 25 21 0 7 3 10 6 6 3 -3 28 10
55 29 27 19 52 34 57 34 4 0 14 9 22 20 8 11 19 20 25 20 5 0 34 24 63 54 28
30 52 52 52 49 0 -16 116 148 158 225 13 24 53 126 54 139 0 5 4 18 9 31 9 23
13 41 24 97 3 17 8 44 12 60 8 37 11 196 4 210 -3 6 -6 24 -6 40 -1 17 -4 35
-7 40 -3 6 -9 26 -12 45 -4 19 -11 44 -16 55 -19 40 -33 80 -32 88 1 4 -3 7
-8 7 -6 0 -10 7 -10 15 0 8 -4 15 -10 15 -5 0 -10 6 -10 13 -1 23 -108 143
-158 174 -15 10 -33 26 -40 35 -7 10 -17 18 -21 18 -5 0 -39 17 -77 38 -38 21
-73 39 -79 40 -5 1 -32 10 -60 19 -27 9 -54 18 -60 19 -58 15 -170 35 -220 41
-43 4 -255 9 -259 6z m-25 -513 c16 5 29 6 29 2 0 -4 21 -8 48 -8 75 -3 122
-8 122 -15 0 -4 12 -9 28 -12 15 -3 52 -22 82 -42 93 -61 141 -151 145 -271 2
-64 -11 -151 -27 -194 -4 -8 -14 -36 -24 -62 -9 -27 -21 -48 -25 -48 -5 0 -8
-3 -7 -7 4 -12 -42 -83 -53 -83 -5 0 -8 -3 -6 -8 4 -13 -93 -101 -161 -145
-44 -28 -136 -76 -149 -78 -5 -1 -19 -6 -33 -11 -14 -5 -33 -11 -43 -13 -9 -2
-21 -6 -25 -9 -11 -7 -72 -19 -92 -18 -44 1 -201 68 -247 105 -69 55 -143 155
-143 193 0 8 -3 14 -7 14 -8 0 -10 13 -14 95 -10 241 120 458 332 554 56 25
96 36 198 56 13 2 26 7 30 10 3 4 7 2 9 -4 2 -6 14 -6 33 -1z m-206 -1533 c73
-13 181 -57 235 -96 75 -56 150 -155 150 -198 0 -11 5 -24 12 -31 21 -21 14
-196 -12 -287 -26 -91 -51 -155 -62 -155 -5 0 -8 -5 -8 -11 0 -36 -192 -229
-227 -229 -6 0 -21 -8 -34 -18 -31 -24 -169 -69 -239 -77 -85 -11 -150 -12
-156 -3 -3 4 -13 4 -23 -2 -10 -5 -21 -7 -23 -4 -3 3 -18 7 -34 10 -16 2 -40
7 -54 11 -14 3 -28 7 -32 7 -3 1 -9 4 -13 8 -4 4 -13 4 -21 1 -8 -3 -14 -1
-14 5 0 6 -16 16 -35 22 -55 18 -169 139 -181 193 -1 4 -2 8 -4 10 -2 3 -11
38 -14 57 -1 9 -4 20 -8 25 -6 11 -3 118 5 175 5 33 9 49 24 88 3 9 7 22 9 27
1 6 7 24 14 40 6 17 12 32 12 35 0 3 13 24 29 47 16 23 29 45 29 48 0 16 158
162 195 180 22 11 42 23 45 26 3 4 30 16 60 29 30 12 66 26 80 32 14 6 34 12
45 14 11 2 45 10 75 17 54 13 114 14 175 4z"/>
<path d="M12384 7123 c-8 -8 -28 -36 -46 -61 -17 -26 -35 -48 -40 -50 -4 -2
-8 -8 -8 -13 0 -5 -7 -17 -15 -26 -19 -24 -129 -172 -188 -255 -26 -36 -54
-73 -62 -82 -8 -8 -15 -17 -15 -21 0 -7 -92 -130 -121 -162 l-20 -22 25 -7
c14 -3 31 -4 38 -1 7 2 21 0 31 -5 9 -5 17 -5 17 -1 0 8 399 7 407 -1 2 -2 0
-21 -6 -42 -5 -22 -12 -50 -15 -64 -3 -14 -12 -46 -20 -72 -8 -25 -12 -49 -9
-52 4 -3 1 -6 -6 -6 -7 0 -10 -4 -7 -9 3 -5 -1 -25 -9 -44 -8 -19 -12 -37 -9
-40 3 -3 2 -12 -2 -19 -5 -7 -10 -20 -12 -28 -5 -25 -10 -45 -12 -45 -1 0 -3
-9 -5 -19 -2 -11 -7 -31 -11 -45 -4 -14 -8 -29 -9 -33 -2 -5 -3 -9 -5 -10 -1
-2 -3 -12 -5 -23 -3 -20 -62 -248 -70 -273 -3 -7 -5 -14 -5 -17 -1 -3 -10 -35
-21 -72 -11 -38 -22 -81 -25 -97 -2 -16 -9 -37 -15 -47 -5 -10 -9 -22 -8 -26
1 -4 0 -10 -1 -13 -1 -3 -3 -12 -5 -20 -2 -8 -6 -25 -9 -37 -3 -13 -8 -32 -10
-43 -3 -11 -7 -24 -10 -28 -3 -5 -7 -19 -10 -33 -3 -13 -16 -67 -31 -119 -14
-52 -28 -104 -30 -115 -3 -11 -8 -33 -12 -50 -4 -16 -7 -32 -8 -35 0 -3 -3 -9
-6 -15 -7 -10 -21 -70 -20 -80 1 -3 -5 -21 -13 -40 -8 -19 -13 -35 -11 -35 1
0 -6 -33 -17 -72 -11 -40 -20 -81 -21 -90 -1 -10 -4 -18 -7 -18 -4 0 -7 -6 -7
-12 0 -7 -8 -42 -18 -78 -9 -36 -19 -72 -20 -80 -2 -8 -4 -15 -5 -15 -2 0 -7
-19 -15 -57 -3 -15 -10 -40 -16 -55 -6 -16 -10 -30 -10 -33 0 -3 -5 -23 -11
-45 -12 -43 -18 -70 -20 -97 -1 -10 -7 -18 -12 -18 -5 0 -7 -3 -3 -6 3 -3 -1
-24 -9 -46 -8 -23 -12 -43 -10 -45 2 -3 -2 -20 -10 -38 -8 -19 -14 -43 -14
-54 0 -20 7 -20 389 -21 l390 0 12 38 c7 20 14 42 15 47 9 41 26 110 43 167
10 36 17 69 13 72 -3 3 -1 6 5 6 5 0 10 6 11 13 1 11 8 51 16 87 2 8 6 22 9
30 12 29 70 255 71 273 0 9 5 17 10 17 5 0 7 3 3 6 -3 3 -1 18 5 33 5 14 12
35 14 46 6 34 55 219 61 235 3 8 7 20 9 25 1 6 7 30 13 55 7 25 14 53 16 63 3
9 7 26 9 37 3 11 7 24 10 28 3 5 8 22 11 38 3 16 14 63 25 104 12 41 22 82 24
90 2 8 12 42 21 75 9 33 18 67 19 75 1 8 11 42 20 75 19 63 28 102 29 123 0 6
5 12 10 12 6 0 8 3 5 6 -4 3 3 36 13 72 19 63 22 77 33 127 2 11 9 33 15 49 7
16 9 31 6 34 -2 3 0 11 7 19 6 7 8 16 5 20 -4 3 -3 11 3 17 5 7 11 26 15 43 3
18 9 43 15 57 5 15 7 26 4 26 -4 0 -1 7 6 15 7 8 10 15 7 15 -4 0 0 18 8 40 8
22 14 41 14 43 0 1 2 14 6 28 3 14 8 34 10 45 2 10 4 19 5 19 1 0 3 7 5 15 2
8 12 47 23 87 11 39 18 74 14 77 -3 3 -1 6 4 6 5 0 11 10 12 23 1 12 15 69 32
126 16 57 27 108 24 112 -3 5 -1 9 4 9 5 0 9 6 9 13 0 6 15 64 33 127 17 63
32 125 32 138 0 12 4 22 8 22 4 0 8 11 8 24 l0 24 -485 -1 c-406 0 -487 -2
-499 -14z"/>
</g>
</svg>
